<svg width="512" height="512" viewBox="0 0 512 512" fill="none" xmlns="http://www.w3.org/2000/svg">
    <rect width="512" height="512" rx="96" fill="url(#paint0_linear_39_172)"/>
    <path d="M73 74V199.222C73 218.9 93.5875 235 118.75 235H210.25C222.384 235 234.02 231.231 242.6 224.521C251.18 217.811 256 208.711 256 199.222V74"
          stroke="white" stroke-width="32" stroke-linecap="round" stroke-linejoin="round"/>
    <path d="M162 74V439" stroke="white" stroke-width="32" stroke-linecap="round" stroke-linejoin="round"/>
    <path d="M438 311.25V74C407.5 74 378.249 83.6138 356.683 100.727C335.116 117.839 323 141.049 323 165.25V274.75C323 294.825 343.7 311.25 369 311.25H438ZM438 311.25V439"
          stroke="white" stroke-width="32" stroke-linecap="round" stroke-linejoin="round"/>
    <defs>
        <linearGradient id="paint0_linear_39_172" x1="512" y1="256" x2="0" y2="256" gradientUnits="userSpaceOnUse">
            <stop stop-color="#FB2C36"/>
            <stop offset="1" stop-color="#FF6900"/>
        </linearGradient>
    </defs>
</svg>
